<?xml version="1.0" encoding="UTF-8" standalone="no"?>
<!DOCTYPE svg PUBLIC "-//W3C//DTD SVG 1.1//EN"
 "http://www.w3.org/Graphics/SVG/1.1/DTD/svg11.dtd">
<!-- Generated by graphviz version 2.50.0 (0)
 -->
<!-- Pages: 1 -->
<svg width="510pt" height="218pt"
 viewBox="0.00 0.00 510.00 218.00" xmlns="http://www.w3.org/2000/svg" xmlns:xlink="http://www.w3.org/1999/xlink">
<g id="graph0" class="graph" transform="scale(1 1) rotate(0) translate(4 214)">
<polygon fill="white" stroke="transparent" points="-4,4 -4,-214 506,-214 506,4 -4,4"/>
<!-- 4428518400 -->
<g id="node1" class="node">
<title>4428518400</title>
<ellipse fill="#9acd32" stroke="black" cx="307" cy="-192" rx="18" ry="18"/>
<text text-anchor="middle" x="307" y="-188.9" font-family="Helvetica,sans-Serif" font-size="12.00">!</text>
</g>
<!-- 4428525264 -->
<g id="node2" class="node">
<title>4428525264</title>
<ellipse fill="#9acd32" stroke="black" cx="179" cy="-134" rx="18" ry="18"/>
<text text-anchor="middle" x="179" y="-130.9" font-family="Helvetica,sans-Serif" font-size="12.00">D</text>
</g>
<!-- 4428518400&#45;&gt;4428525264 -->
<g id="edge1" class="edge">
<title>4428518400&#45;&gt;4428525264</title>
<path fill="none" stroke="black" d="M290.79,-183.91C268.02,-173.95 226.52,-155.79 200.99,-144.62"/>
<polygon fill="black" stroke="black" points="201.82,-142.69 195.48,-142.21 200.14,-146.54 201.82,-142.69"/>
</g>
<!-- 653397 -->
<!-- 4428518400&#45;&gt;653397 -->
<!-- 4428525936 -->
<g id="node4" class="node">
<title>4428525936</title>
<ellipse fill="#9acd32" stroke="black" cx="436" cy="-134" rx="18" ry="18"/>
<text text-anchor="middle" x="436" y="-130.9" font-family="Helvetica,sans-Serif" font-size="12.00">R</text>
</g>
<!-- 4428518400&#45;&gt;4428525936 -->
<g id="edge3" class="edge">
<title>4428518400&#45;&gt;4428525936</title>
<path fill="none" stroke="black" d="M323.34,-183.91C346.41,-173.89 388.57,-155.59 414.26,-144.44"/>
<polygon fill="black" stroke="black" points="415.13,-146.35 419.79,-142.03 413.45,-142.5 415.13,-146.35"/>
</g>
<!-- 4428523728 -->
<g id="node5" class="node">
<title>4428523728</title>
<ellipse fill="#9acd32" stroke="black" cx="66" cy="-76" rx="18" ry="18"/>
<text text-anchor="middle" x="66" y="-72.9" font-family="Helvetica,sans-Serif" font-size="12.00">R</text>
</g>
<!-- 4428525264&#45;&gt;4428523728 -->
<g id="edge4" class="edge">
<title>4428525264&#45;&gt;4428523728</title>
<path fill="none" stroke="black" d="M163.29,-125.21C143.58,-115.45 109.7,-98.66 87.57,-87.69"/>
<polygon fill="black" stroke="black" points="88.25,-85.68 81.94,-84.9 86.39,-89.45 88.25,-85.68"/>
</g>
<!-- 15729 -->
<!-- 4428525264&#45;&gt;15729 -->
<!-- 4428525552 -->
<g id="node7" class="node">
<title>4428525552</title>
<ellipse fill="#9acd32" stroke="black" cx="227" cy="-76" rx="18" ry="18"/>
<text text-anchor="middle" x="227" y="-72.9" font-family="Helvetica,sans-Serif" font-size="12.00">I</text>
</g>
<!-- 4428525264&#45;&gt;4428525552 -->
<g id="edge6" class="edge">
<title>4428525264&#45;&gt;4428525552</title>
<path fill="none" stroke="black" d="M190.38,-119.73C196.71,-112.34 204.69,-103.03 211.58,-94.99"/>
<polygon fill="black" stroke="black" points="213.4,-96.1 215.71,-90.18 210.21,-93.36 213.4,-96.1"/>
</g>
<!-- 4428526032 -->
<g id="node14" class="node">
<title>4428526032</title>
<ellipse fill="#9acd32" stroke="black" cx="388" cy="-76" rx="18" ry="18"/>
<text text-anchor="middle" x="388" y="-72.9" font-family="Helvetica,sans-Serif" font-size="12.00">P</text>
</g>
<!-- 4428525936&#45;&gt;4428526032 -->
<g id="edge13" class="edge">
<title>4428525936&#45;&gt;4428526032</title>
<path fill="none" stroke="black" d="M424.62,-119.73C418.29,-112.34 410.31,-103.03 403.42,-94.99"/>
<polygon fill="black" stroke="black" points="404.79,-93.36 399.29,-90.18 401.6,-96.1 404.79,-93.36"/>
</g>
<!-- 66233 -->
<!-- 4428525936&#45;&gt;66233 -->
<!-- 4428526272 -->
<g id="node16" class="node">
<title>4428526272</title>
<ellipse fill="#9acd32" stroke="black" cx="484" cy="-76" rx="18" ry="18"/>
<text text-anchor="middle" x="484" y="-72.9" font-family="Helvetica,sans-Serif" font-size="12.00">E</text>
</g>
<!-- 4428525936&#45;&gt;4428526272 -->
<g id="edge15" class="edge">
<title>4428525936&#45;&gt;4428526272</title>
<path fill="none" stroke="black" d="M447.38,-119.73C453.71,-112.34 461.69,-103.03 468.58,-94.99"/>
<polygon fill="black" stroke="black" points="470.4,-96.1 472.71,-90.18 467.21,-93.36 470.4,-96.1"/>
</g>
<!-- 4428525312 -->
<g id="node8" class="node">
<title>4428525312</title>
<ellipse fill="#9acd32" stroke="black" cx="18" cy="-18" rx="18" ry="18"/>
<text text-anchor="middle" x="18" y="-14.9" font-family="Helvetica,sans-Serif" font-size="12.00">I</text>
</g>
<!-- 4428523728&#45;&gt;4428525312 -->
<g id="edge7" class="edge">
<title>4428523728&#45;&gt;4428525312</title>
<path fill="none" stroke="black" d="M54.62,-61.73C48.29,-54.34 40.31,-45.03 33.42,-36.99"/>
<polygon fill="black" stroke="black" points="34.79,-35.36 29.29,-32.18 31.6,-38.1 34.79,-35.36"/>
</g>
<!-- 872102 -->
<!-- 4428523728&#45;&gt;872102 -->
<!-- 4428525408 -->
<g id="node10" class="node">
<title>4428525408</title>
<ellipse fill="#9acd32" stroke="black" cx="114" cy="-18" rx="18" ry="18"/>
<text text-anchor="middle" x="114" y="-14.9" font-family="Helvetica,sans-Serif" font-size="12.00">H</text>
</g>
<!-- 4428523728&#45;&gt;4428525408 -->
<g id="edge9" class="edge">
<title>4428523728&#45;&gt;4428525408</title>
<path fill="none" stroke="black" d="M77.38,-61.73C83.71,-54.34 91.69,-45.03 98.58,-36.99"/>
<polygon fill="black" stroke="black" points="100.4,-38.1 102.71,-32.18 97.21,-35.36 100.4,-38.1"/>
</g>
<!-- 4428525744 -->
<g id="node11" class="node">
<title>4428525744</title>
<ellipse fill="#9acd32" stroke="black" cx="179" cy="-18" rx="18" ry="18"/>
<text text-anchor="middle" x="179" y="-14.9" font-family="Helvetica,sans-Serif" font-size="12.00">S</text>
</g>
<!-- 4428525552&#45;&gt;4428525744 -->
<g id="edge10" class="edge">
<title>4428525552&#45;&gt;4428525744</title>
<path fill="none" stroke="black" d="M215.62,-61.73C209.29,-54.34 201.31,-45.03 194.42,-36.99"/>
<polygon fill="black" stroke="black" points="195.79,-35.36 190.29,-32.18 192.6,-38.1 195.79,-35.36"/>
</g>
<!-- 554047 -->
<!-- 4428525552&#45;&gt;554047 -->
<!-- 4428525840 -->
<g id="node13" class="node">
<title>4428525840</title>
<ellipse fill="#9acd32" stroke="black" cx="275" cy="-18" rx="18" ry="18"/>
<text text-anchor="middle" x="275" y="-14.9" font-family="Helvetica,sans-Serif" font-size="12.00">E</text>
</g>
<!-- 4428525552&#45;&gt;4428525840 -->
<g id="edge12" class="edge">
<title>4428525552&#45;&gt;4428525840</title>
<path fill="none" stroke="black" d="M238.38,-61.73C244.71,-54.34 252.69,-45.03 259.58,-36.99"/>
<polygon fill="black" stroke="black" points="261.4,-38.1 263.71,-32.18 258.21,-35.36 261.4,-38.1"/>
</g>
<!-- 4428526080 -->
<g id="node17" class="node">
<title>4428526080</title>
<ellipse fill="#9acd32" stroke="black" cx="340" cy="-18" rx="18" ry="18"/>
<text text-anchor="middle" x="340" y="-14.9" font-family="Helvetica,sans-Serif" font-size="12.00">S</text>
</g>
<!-- 4428526032&#45;&gt;4428526080 -->
<g id="edge16" class="edge">
<title>4428526032&#45;&gt;4428526080</title>
<path fill="none" stroke="black" d="M376.62,-61.73C370.29,-54.34 362.31,-45.03 355.42,-36.99"/>
<polygon fill="black" stroke="black" points="356.79,-35.36 351.29,-32.18 353.6,-38.1 356.79,-35.36"/>
</g>
<!-- 62443 -->
<!-- 4428526032&#45;&gt;62443 -->
<!-- 4428526176 -->
<g id="node19" class="node">
<title>4428526176</title>
<ellipse fill="#9acd32" stroke="black" cx="436" cy="-18" rx="18" ry="18"/>
<text text-anchor="middle" x="436" y="-14.9" font-family="Helvetica,sans-Serif" font-size="12.00">U</text>
</g>
<!-- 4428526032&#45;&gt;4428526176 -->
<g id="edge18" class="edge">
<title>4428526032&#45;&gt;4428526176</title>
<path fill="none" stroke="black" d="M399.38,-61.73C405.71,-54.34 413.69,-45.03 420.58,-36.99"/>
<polygon fill="black" stroke="black" points="422.4,-38.1 424.71,-32.18 419.21,-35.36 422.4,-38.1"/>
</g>
</g>
</svg>
